# xmcd
#
# Track frame offsets:
#  150
#  17777
#  37530
#  54992
#  72132
#  92272
#  111587
#  129867
#  144970
#  168542
#
# Disc length: 2407 seconds
#
# Revision: 0
# Processed by: cddbd v1.4PL0 Copyright (c) Steve Scherf et al.
# Submitted via: AltoMP3_Maker 3.0
#
DISCID=7409650a
DTITLE=Etta James - Gold Collection
DYEAR=1900
DGENRE=
TTITLE0=Summer Heat
TTITLE1=Drown In My Own Tears
TTITLE2=Can't Turn You Loose
TTITLE3=Dust Your Broom
TTITLE4=I'd Rather Go Blind
TTITLE5=Shake Yo' Booty
TTITLE6=Respect Yourself
TTITLE7=Rock Me Baby
TTITLE8=Stormy Monday
TTITLE9=Dance With Me Henry
EXTD=
EXTT0=
EXTT1=
EXTT2=
EXTT3=
EXTT4=
EXTT5=
EXTT6=
EXTT7=
EXTT8=
EXTT9=
PLAYORDER=
